<svg width="341" height="252" viewBox="0 0 341 252" fill="none" xmlns="http://www.w3.org/2000/svg">
<path d="M297.14 2.33326C306.993 0.0732645 316.868 -0.0917354 325.706 5.47126C326.134 5.7466 326.556 6.0326 326.97 6.32927C327.384 6.62593 327.79 6.93258 328.19 7.24925C328.588 7.56658 328.979 7.89326 329.362 8.22926C329.744 8.56526 330.118 8.91091 330.484 9.26625C330.85 9.62091 331.206 9.98458 331.554 10.3573C331.901 10.7299 332.239 11.1109 332.568 11.5003C332.896 11.8896 333.214 12.2869 333.523 12.6922C333.831 13.0976 334.13 13.5102 334.418 13.9302C334.706 14.3509 334.983 14.7783 335.251 15.2123C335.517 15.6463 335.773 16.0866 336.018 16.5332C336.262 16.9799 336.496 17.4323 336.719 17.8903C336.941 18.3489 337.152 18.8126 337.352 19.2813C337.551 19.7499 337.738 20.2232 337.914 20.7012C338.09 21.1799 338.253 21.6623 338.405 22.1483C338.557 22.6349 338.696 23.1249 338.824 23.6183C338.951 24.1116 339.066 24.6076 339.169 25.1062C340.072 29.3542 339.999 33.6143 339.97 37.9373C340.378 57.4683 339.994 77.0703 339.989 96.6093C339.987 106.67 341.078 123.856 339.109 132.992C338.104 137.66 335.226 142.305 331.908 145.663C331.557 146.015 331.198 146.358 330.831 146.692C330.464 147.026 330.089 147.351 329.706 147.667C329.322 147.983 328.932 148.29 328.534 148.586C328.136 148.884 327.731 149.171 327.319 149.447C326.907 149.725 326.488 149.992 326.064 150.248C325.638 150.505 325.207 150.751 324.771 150.987C324.333 151.223 323.891 151.448 323.443 151.662C322.995 151.876 322.542 152.079 322.084 152.271C321.626 152.463 321.163 152.644 320.697 152.814C320.23 152.984 319.76 153.142 319.286 153.288C318.811 153.435 318.333 153.57 317.852 153.693C317.371 153.817 316.887 153.928 316.401 154.027C315.915 154.127 315.426 154.215 314.936 154.291C314.445 154.367 313.953 154.43 313.459 154.482C312.965 154.534 312.47 154.574 311.974 154.602C311.478 154.63 310.982 154.646 310.486 154.649C310.054 154.652 309.623 154.644 309.192 154.626C308.76 154.608 308.33 154.579 307.9 154.539C307.47 154.5 307.041 154.45 306.615 154.389C306.187 154.329 305.761 154.258 305.338 154.176C304.914 154.095 304.492 154.003 304.073 153.9C303.653 153.798 303.237 153.686 302.823 153.563C302.409 153.441 301.999 153.308 301.592 153.164C301.184 153.022 300.781 152.869 300.381 152.705C299.981 152.543 299.586 152.37 299.195 152.188C298.803 152.006 298.417 151.814 298.035 151.612C297.653 151.411 297.277 151.2 296.906 150.98C296.534 150.76 296.168 150.532 295.808 150.294C295.448 150.056 295.094 149.81 294.746 149.554C294.398 149.299 294.056 149.035 293.721 148.763C293.386 148.491 293.058 148.21 292.737 147.922C292.415 147.634 292.101 147.338 291.795 147.034C286.265 141.499 284.381 134.309 284.553 126.704C284.759 117.538 285.573 108.417 285.529 99.2393C274.713 109.163 264.57 119.975 254.228 130.396C250.732 133.919 246.834 138.878 242.858 141.691C233.112 151.607 223.074 161.192 213.174 170.949C205.56 178.452 197.688 187.968 188.475 193.493C187.653 193.988 186.816 194.455 185.964 194.893C185.11 195.333 184.244 195.743 183.364 196.123C182.484 196.505 181.592 196.856 180.689 197.178C179.785 197.5 178.872 197.791 177.95 198.052C177.027 198.313 176.096 198.543 175.158 198.741C174.22 198.941 173.276 199.108 172.327 199.244C171.377 199.38 170.425 199.485 169.469 199.557C168.512 199.63 167.554 199.671 166.596 199.679C147.525 199.77 135.542 186.246 121.42 175.719C115.161 180.2 108.572 187.981 102.894 193.582L57.0537 239.294C49.3367 246.905 40.0957 251.726 29.0417 251.573C28.5564 251.569 28.0717 251.552 27.5877 251.523C27.1037 251.494 26.6207 251.453 26.1387 251.399C25.6567 251.346 25.1764 251.281 24.6977 251.203C24.2184 251.126 23.7417 251.036 23.2677 250.934C22.7937 250.833 22.3224 250.72 21.8537 250.594C21.385 250.469 20.9201 250.332 20.4587 250.183C19.9967 250.034 19.539 249.873 19.0857 249.701C18.6324 249.529 18.1837 249.346 17.7397 249.152C17.295 248.958 16.8557 248.752 16.4217 248.535C15.9877 248.318 15.5597 248.09 15.1377 247.852C14.715 247.614 14.2987 247.365 13.8887 247.105C13.4794 246.846 13.0764 246.577 12.6797 246.297C12.2837 246.017 11.8947 245.728 11.5127 245.428C11.1314 245.129 10.7577 244.82 10.3917 244.502C10.0257 244.184 9.6677 243.857 9.31769 243.52C8.96836 243.184 8.62769 242.84 8.29569 242.486C2.83669 236.637 0.136705 229.035 0.383705 221.057C0.550705 215.678 2.02672 210.195 4.79472 205.56C10.3967 196.181 28.8637 179.825 37.4577 171.808L73.2897 135.97C80.7217 128.59 88.4987 119.587 97.4027 114.057C102.332 110.996 108.331 109.134 114.099 108.594C135.331 106.607 147.632 121.511 162.471 133.939C172.037 126.452 181.654 115.611 190.372 106.982C203.201 94.2843 216.601 81.9132 228.856 68.6792C223.824 68.4202 215.144 71.1232 209.753 71.8432C200.591 73.0662 191.749 72.2602 184.3 66.2742C183.946 65.9896 183.6 65.6963 183.262 65.3943C182.923 65.0923 182.592 64.7819 182.27 64.4633C181.947 64.1446 181.632 63.8179 181.326 63.4833C181.02 63.1486 180.722 62.8062 180.433 62.4562C180.144 62.1063 179.864 61.7493 179.594 61.3853C179.322 61.0213 179.061 60.6509 178.809 60.2742C178.557 59.8969 178.314 59.5132 178.082 59.1232C177.849 58.7339 177.626 58.3389 177.414 57.9382C177.201 57.5376 176.999 57.1316 176.807 56.7203C176.615 56.3096 176.433 55.8939 176.263 55.4732C176.091 55.0532 175.931 54.6289 175.782 54.2003C175.632 53.7723 175.494 53.3406 175.367 52.9053C175.239 52.4693 175.122 52.0309 175.017 51.5903C174.911 51.1489 174.817 50.7049 174.735 50.2583C174.651 49.8123 174.58 49.3646 174.52 48.9153C174.46 48.4653 174.411 48.0143 174.374 47.5623C174.332 47.0889 174.302 46.6149 174.284 46.1403C174.266 45.6656 174.259 45.1906 174.265 44.7153C174.27 44.2406 174.288 43.7659 174.318 43.2912C174.347 42.8172 174.388 42.3443 174.442 41.8723C174.494 41.4003 174.559 40.9299 174.637 40.4613C174.713 39.9919 174.802 39.5253 174.902 39.0613C175.002 38.5966 175.114 38.1349 175.238 37.6763C175.361 37.2176 175.496 36.7623 175.642 36.3103C175.788 35.8583 175.945 35.4103 176.115 34.9663C176.283 34.5216 176.463 34.0819 176.654 33.6473C176.844 33.2119 177.046 32.7819 177.258 32.3573C177.47 31.9319 177.693 31.5122 177.927 31.0982C178.16 30.6849 178.404 30.2773 178.658 29.8753C178.912 29.4739 179.175 29.0789 179.449 28.6903C179.723 28.3023 180.006 27.9213 180.299 27.5473C180.591 27.1726 180.893 26.8059 181.205 26.4472C184.626 22.5382 188.947 19.8702 193.89 18.3482C199.857 16.5102 206.359 16.0332 212.526 15.1492L239.905 11.0753L276.374 5.33925C283.233 4.25325 290.216 2.82326 297.14 2.33326Z" fill="#32B5AB"/>
<path d="M37.4577 171.808C42.9995 169.5 47.0727 167.683 51.2687 166.161C74.5057 157.73 101.576 159.631 121.474 175.327L121.42 175.719C115.161 180.2 108.572 187.981 102.894 193.582L57.0537 239.294C49.3367 246.905 40.0957 251.726 29.0417 251.573C28.5564 251.568 28.0717 251.551 27.5877 251.523C27.1037 251.493 26.6207 251.452 26.1387 251.399C25.6567 251.345 25.1764 251.28 24.6977 251.203C24.2184 251.125 23.7417 251.036 23.2677 250.934C22.7937 250.832 22.3224 250.719 21.8537 250.594C21.385 250.468 20.9201 250.331 20.4587 250.183C19.9967 250.033 19.539 249.873 19.0857 249.701C18.6324 249.529 18.1837 249.346 17.7397 249.152C17.295 248.957 16.8557 248.751 16.4217 248.535C15.9877 248.317 15.5597 248.09 15.1377 247.852C14.715 247.613 14.2987 247.364 13.8887 247.105C13.4794 246.845 13.0764 246.576 12.6797 246.297C12.2837 246.017 11.8947 245.727 11.5127 245.428C11.1314 245.128 10.7577 244.82 10.3917 244.502C10.0257 244.184 9.6677 243.856 9.31769 243.52C8.96836 243.184 8.62769 242.839 8.29569 242.486C2.83669 236.637 0.136705 229.035 0.383705 221.057C0.550705 215.678 2.02672 210.195 4.79472 205.56C10.3967 196.181 28.8637 179.825 37.4577 171.808Z" fill="#2A8786"/>
<path d="M228.856 68.679C223.824 68.42 215.144 71.123 209.753 71.843C200.591 73.066 191.749 72.26 184.3 66.274C183.947 65.9893 183.601 65.696 183.262 65.394C182.923 65.092 182.593 64.7817 182.27 64.463C181.947 64.1443 181.633 63.8177 181.326 63.483C181.02 63.1483 180.722 62.806 180.433 62.456C180.144 62.106 179.865 61.749 179.594 61.385C179.323 61.021 179.061 60.6507 178.809 60.274C178.557 59.8967 178.315 59.513 178.082 59.123C177.849 58.7337 177.627 58.3387 177.414 57.938C177.201 57.5373 176.999 57.1313 176.807 56.72C176.615 56.3093 176.434 55.8937 176.263 55.473C176.092 55.053 175.931 54.6287 175.782 54.2C175.633 53.772 175.494 53.3403 175.367 52.905C175.239 52.469 175.122 52.0307 175.017 51.59C174.912 51.1487 174.818 50.7047 174.735 50.258C174.652 49.812 174.58 49.3643 174.52 48.915C174.46 48.465 174.411 48.014 174.374 47.562C174.332 47.0887 174.302 46.6147 174.284 46.14C174.266 45.6653 174.26 45.1903 174.265 44.715C174.27 44.2403 174.288 43.7657 174.318 43.291C174.347 42.817 174.389 42.344 174.442 41.872C174.495 41.4 174.56 40.9297 174.637 40.461C174.714 39.9917 174.802 39.525 174.902 39.061C175.003 38.5963 175.115 38.1347 175.238 37.676C175.361 37.2173 175.496 36.762 175.642 36.31C175.788 35.858 175.946 35.41 176.115 34.966C176.284 34.5213 176.463 34.0817 176.654 33.647C176.845 33.2117 177.046 32.7817 177.258 32.357C177.471 31.9317 177.694 31.512 177.927 31.098C178.16 30.6847 178.404 30.277 178.658 29.875C178.912 29.4737 179.176 29.0787 179.449 28.69C179.723 28.302 180.006 27.921 180.299 27.547C180.592 27.1723 180.894 26.8057 181.205 26.447C184.626 22.538 188.947 19.87 193.89 18.348C199.857 16.51 206.359 16.033 212.526 15.149L239.905 11.075L276.374 5.33899C283.233 4.25299 290.216 2.82301 297.14 2.33301C293.221 6.38101 288.233 9.38799 284.195 13.421C270.262 27.337 256.726 41.633 242.702 55.475C238.629 59.495 233.501 65.644 228.856 68.679Z" fill="#4CC8BD"/>
<path d="M285.529 99.239C296.474 87.642 308.04 76.522 319.213 65.131C324.53 59.711 330.511 54.33 334.906 48.135C337.076 45.077 338.328 41.299 339.97 37.937C340.378 57.468 339.994 77.07 339.989 96.609C339.987 106.67 341.078 123.856 339.109 132.992C338.104 137.66 335.226 142.305 331.908 145.663C331.557 146.015 331.198 146.358 330.831 146.692C330.464 147.026 330.089 147.351 329.706 147.667C329.322 147.983 328.932 148.289 328.534 148.586C328.136 148.883 327.731 149.17 327.319 149.447C326.907 149.724 326.488 149.991 326.064 150.248C325.638 150.505 325.207 150.751 324.771 150.987C324.333 151.222 323.891 151.447 323.443 151.662C322.995 151.876 322.542 152.079 322.084 152.271C321.626 152.463 321.163 152.644 320.697 152.814C320.23 152.983 319.76 153.141 319.286 153.288C318.811 153.435 318.333 153.57 317.852 153.693C317.371 153.816 316.887 153.928 316.401 154.027C315.915 154.127 315.426 154.215 314.936 154.291C314.445 154.366 313.953 154.43 313.459 154.482C312.965 154.534 312.47 154.574 311.974 154.602C311.478 154.63 310.982 154.646 310.486 154.649C310.054 154.652 309.623 154.644 309.192 154.626C308.76 154.608 308.33 154.579 307.9 154.539C307.47 154.5 307.041 154.45 306.615 154.389C306.187 154.328 305.761 154.257 305.338 154.176C304.914 154.095 304.492 154.003 304.073 153.9C303.653 153.798 303.237 153.686 302.823 153.563C302.409 153.44 301.999 153.307 301.592 153.164C301.184 153.021 300.781 152.868 300.381 152.705C299.981 152.542 299.586 152.37 299.195 152.188C298.803 152.005 298.417 151.813 298.035 151.612C297.653 151.411 297.277 151.2 296.906 150.98C296.534 150.76 296.168 150.531 295.808 150.294C295.448 150.056 295.094 149.809 294.746 149.554C294.398 149.299 294.056 149.035 293.721 148.763C293.386 148.49 293.058 148.21 292.737 147.922C292.415 147.634 292.101 147.338 291.795 147.034C286.265 141.499 284.381 134.309 284.553 126.704C284.759 117.538 285.573 108.417 285.529 99.239Z" fill="#2A8786"/>
<path d="M162.433 134.342C164.496 135.845 166.57 137.332 168.656 138.802C186.315 151.151 207.577 154.971 228.094 147.813C232.514 146.271 237.685 142.402 242.154 141.774C242.388 141.741 242.623 141.719 242.858 141.691C233.112 151.607 223.074 161.192 213.174 170.949C205.56 178.452 197.688 187.968 188.475 193.493C187.654 193.987 186.817 194.454 185.964 194.893C185.111 195.332 184.244 195.742 183.364 196.123C182.484 196.504 181.592 196.856 180.689 197.178C179.786 197.499 178.873 197.79 177.95 198.052C177.027 198.312 176.097 198.542 175.158 198.741C174.22 198.94 173.276 199.108 172.327 199.244C171.378 199.38 170.425 199.484 169.469 199.557C168.512 199.629 167.555 199.67 166.596 199.679C147.525 199.77 135.542 186.246 121.42 175.719L121.474 175.327C123.713 171.296 132.603 163.844 136.258 160.249L162.433 134.342Z" fill="#37565E"/>
</svg>
